<svg width="704" height="224" viewBox="0 0 704 224" fill="none" xmlns="http://www.w3.org/2000/svg">
<path d="M264.94 46.8182H243.71C243.56 45.0616 243.158 43.468 242.506 42.0376C241.878 40.6072 241 39.3776 239.871 38.3487C238.767 37.2947 237.424 36.4917 235.843 35.9396C234.262 35.3625 232.468 35.0739 230.46 35.0739C226.947 35.0739 223.973 35.9271 221.539 37.6335C219.13 39.34 217.298 41.7867 216.043 44.9737C214.814 48.1607 214.199 51.9877 214.199 56.4545C214.199 61.1723 214.826 65.1248 216.081 68.3118C217.361 71.4737 219.205 73.8577 221.614 75.4638C224.023 77.0447 226.922 77.8352 230.31 77.8352C232.242 77.8352 233.973 77.5968 235.504 77.12C237.035 76.6181 238.365 75.9029 239.494 74.9744C240.624 74.0459 241.54 72.9292 242.242 71.6243C242.97 70.2943 243.459 68.8011 243.71 67.1449L264.94 67.2955C264.689 70.5578 263.773 73.8828 262.192 77.2706C260.612 80.6333 258.366 83.745 255.455 86.6058C252.569 89.4415 248.993 91.7251 244.727 93.4567C240.46 95.1882 235.504 96.054 229.858 96.054C222.781 96.054 216.432 94.5357 210.811 91.4993C205.215 88.4628 200.786 83.996 197.523 78.0987C194.286 72.2015 192.668 64.9867 192.668 56.4545C192.668 47.8722 194.324 40.6449 197.636 34.7727C200.949 28.8755 205.416 24.4212 211.037 21.4098C216.658 18.3733 222.932 16.8551 229.858 16.8551C234.726 16.8551 239.206 17.5201 243.296 18.8501C247.387 20.1802 250.975 22.125 254.062 24.6847C257.148 27.2192 259.633 30.3435 261.515 34.0575C263.397 37.7715 264.539 42.0251 264.94 46.8182ZM295.515 62.4773V95H274.737V17.9091H294.762V48.1733H295.365C296.669 44.4844 298.84 41.611 301.877 39.5533C304.913 37.4704 308.564 36.429 312.83 36.429C316.921 36.429 320.472 37.3575 323.483 39.2145C326.52 41.0715 328.866 43.6312 330.522 46.8935C332.204 50.1558 333.032 53.8949 333.007 58.1108V95H312.228V62.4773C312.253 59.6165 311.538 57.3705 310.083 55.7393C308.652 54.1082 306.607 53.2926 303.947 53.2926C302.266 53.2926 300.785 53.669 299.505 54.4219C298.25 55.1496 297.272 56.2036 296.569 57.5838C295.892 58.9389 295.54 60.5701 295.515 62.4773ZM370.969 96.054C364.795 96.054 359.475 94.8745 355.008 92.5156C350.567 90.1316 347.141 86.7187 344.732 82.277C342.348 77.8101 341.156 72.465 341.156 66.2415C341.156 60.2689 342.361 55.0492 344.77 50.5824C347.179 46.1155 350.579 42.6399 354.971 40.1555C359.362 37.6712 364.544 36.429 370.517 36.429C374.883 36.429 378.836 37.1065 382.374 38.4616C385.912 39.8168 388.936 41.7867 391.446 44.3714C393.955 46.9311 395.888 50.0429 397.243 53.7067C398.598 57.3705 399.275 61.4986 399.275 66.0909V70.9091H347.631V59.4659H380.153C380.128 57.8097 379.702 56.3542 378.873 55.0994C378.07 53.8196 376.979 52.8284 375.599 52.1257C374.243 51.398 372.7 51.0341 370.969 51.0341C369.287 51.0341 367.744 51.398 366.339 52.1257C364.933 52.8284 363.804 53.8071 362.951 55.0618C362.123 56.3165 361.684 57.7846 361.633 59.4659V71.8125C361.633 73.6695 362.022 75.3258 362.8 76.7812C363.578 78.2367 364.695 79.3786 366.15 80.2067C367.606 81.0348 369.363 81.4489 371.42 81.4489C372.851 81.4489 374.156 81.2481 375.335 80.8466C376.54 80.4451 377.568 79.8679 378.422 79.1151C379.275 78.3371 379.902 77.4086 380.304 76.3295H399.275C398.623 80.3447 397.08 83.8329 394.645 86.794C392.211 89.7301 388.987 92.0137 384.971 93.6449C380.981 95.2509 376.314 96.054 370.969 96.054ZM423.865 95.9034C420.176 95.9034 416.914 95.3011 414.078 94.0966C411.268 92.867 409.059 91.0099 407.453 88.5256C405.847 86.0412 405.044 82.8793 405.044 79.0398C405.044 75.8778 405.584 73.1802 406.663 70.9467C407.742 68.6882 409.247 66.8438 411.18 65.4134C413.112 63.983 415.358 62.8913 417.918 62.1385C420.502 61.3857 423.288 60.8963 426.274 60.6705C429.511 60.4195 432.109 60.1184 434.066 59.767C436.049 59.3906 437.479 58.8762 438.357 58.2237C439.236 57.5462 439.675 56.6553 439.675 55.5511V55.4006C439.675 53.8949 439.098 52.7405 437.943 51.9375C436.789 51.1345 435.308 50.733 433.501 50.733C431.519 50.733 429.9 51.1721 428.646 52.0504C427.416 52.9036 426.676 54.2211 426.425 56.0028H407.303C407.554 52.4896 408.67 49.2524 410.653 46.2912C412.66 43.3049 415.584 40.9209 419.423 39.1392C423.263 37.3324 428.056 36.429 433.803 36.429C437.943 36.429 441.657 36.9183 444.945 37.897C448.232 38.8506 451.03 40.1932 453.339 41.9247C455.647 43.6312 457.404 45.6387 458.609 47.9474C459.838 50.2311 460.453 52.7154 460.453 55.4006V95H441.03V86.8693H440.578C439.424 89.0275 438.018 90.7715 436.362 92.1016C434.731 93.4316 432.862 94.3977 430.754 95C428.671 95.6023 426.375 95.9034 423.865 95.9034ZM430.641 82.804C432.222 82.804 433.702 82.4777 435.082 81.8253C436.488 81.1728 437.629 80.2318 438.508 79.0021C439.386 77.7725 439.825 76.2794 439.825 74.5227V69.7045C439.273 69.9304 438.683 70.1437 438.056 70.3445C437.454 70.5452 436.801 70.7334 436.099 70.9091C435.421 71.0848 434.693 71.2479 433.915 71.3984C433.163 71.549 432.372 71.687 431.544 71.8125C429.938 72.0634 428.621 72.4775 427.592 73.0547C426.588 73.6068 425.835 74.2969 425.333 75.125C424.856 75.928 424.618 76.8314 424.618 77.8352C424.618 79.4413 425.183 80.6709 426.312 81.5241C427.441 82.3774 428.884 82.804 430.641 82.804ZM470.381 116.682V37.1818H491.009V47.2699H491.461C492.214 45.3125 493.318 43.5182 494.773 41.8871C496.229 40.2308 498.036 38.9133 500.194 37.9347C502.352 36.9309 504.861 36.429 507.722 36.429C511.537 36.429 515.163 37.4453 518.601 39.478C522.064 41.5107 524.874 44.7102 527.032 49.0767C529.216 53.4432 530.307 59.1146 530.307 66.0909C530.307 72.7661 529.266 78.2995 527.183 82.6911C525.125 87.0826 522.365 90.3575 518.902 92.5156C515.464 94.6738 511.687 95.7528 507.572 95.7528C504.861 95.7528 502.44 95.3137 500.307 94.4354C498.199 93.532 496.392 92.3149 494.886 90.7841C493.406 89.2282 492.264 87.4716 491.461 85.5142H491.16V116.682H470.381ZM490.708 66.0909C490.708 68.9015 491.072 71.3357 491.8 73.3935C492.552 75.4261 493.606 77.0071 494.961 78.1364C496.342 79.2405 497.985 79.7926 499.893 79.7926C501.8 79.7926 503.418 79.2531 504.748 78.174C506.104 77.0698 507.132 75.5014 507.835 73.4688C508.563 71.411 508.927 68.9517 508.927 66.0909C508.927 63.2301 508.563 60.7834 507.835 58.7507C507.132 56.6929 506.104 55.1245 504.748 54.0455C503.418 52.9413 501.8 52.3892 499.893 52.3892C497.985 52.3892 496.342 52.9413 494.961 54.0455C493.606 55.1245 492.552 56.6929 491.8 58.7507C491.072 60.7834 490.708 63.2301 490.708 66.0909ZM566.717 96.054C560.543 96.054 555.223 94.8745 550.756 92.5156C546.315 90.1316 542.889 86.7187 540.48 82.277C538.096 77.8101 536.904 72.465 536.904 66.2415C536.904 60.2689 538.109 55.0492 540.518 50.5824C542.927 46.1155 546.327 42.6399 550.719 40.1555C555.11 37.6712 560.292 36.429 566.265 36.429C570.631 36.429 574.584 37.1065 578.122 38.4616C581.661 39.8168 584.684 41.7867 587.194 44.3714C589.703 46.9311 591.636 50.0429 592.991 53.7067C594.346 57.3705 595.023 61.4986 595.023 66.0909V70.9091H543.379V59.4659H575.901C575.876 57.8097 575.45 56.3542 574.621 55.0994C573.818 53.8196 572.727 52.8284 571.347 52.1257C569.991 51.398 568.448 51.0341 566.717 51.0341C565.035 51.0341 563.492 51.398 562.087 52.1257C560.681 52.8284 559.552 53.8071 558.699 55.0618C557.871 56.3165 557.432 57.7846 557.381 59.4659V71.8125C557.381 73.6695 557.77 75.3258 558.548 76.7812C559.326 78.2367 560.443 79.3786 561.898 80.2067C563.354 81.0348 565.111 81.4489 567.168 81.4489C568.599 81.4489 569.904 81.2481 571.083 80.8466C572.288 80.4451 573.317 79.8679 574.17 79.1151C575.023 78.3371 575.65 77.4086 576.052 76.3295H595.023C594.371 80.3447 592.828 83.8329 590.393 86.794C587.959 89.7301 584.735 92.0137 580.719 93.6449C576.729 95.2509 572.062 96.054 566.717 96.054ZM656.352 56.0028H637.23C637.129 54.8234 636.715 53.8071 635.987 52.9538C635.26 52.1006 634.319 51.4482 633.164 50.9964C632.035 50.5196 630.78 50.2812 629.4 50.2812C627.618 50.2812 626.088 50.6075 624.808 51.2599C623.528 51.9124 622.901 52.8409 622.926 54.0455C622.901 54.8987 623.264 55.6892 624.017 56.4169C624.795 57.1446 626.288 57.7093 628.497 58.1108L640.241 60.2188C646.163 61.2978 650.567 63.1172 653.453 65.6768C656.364 68.2114 657.832 71.6117 657.857 75.8778C657.832 79.9934 656.603 83.5694 654.169 86.6058C651.759 89.6172 648.459 91.951 644.269 93.6072C640.103 95.2384 635.347 96.054 630.002 96.054C621.169 96.054 614.255 94.2472 609.262 90.6335C604.293 87.0199 601.52 82.2519 600.943 76.3295H621.57C621.847 78.1615 622.75 79.5793 624.281 80.5831C625.837 81.5618 627.794 82.0511 630.153 82.0511C632.06 82.0511 633.628 81.7249 634.858 81.0724C636.113 80.42 636.753 79.4915 636.778 78.2869C636.753 77.1828 636.201 76.3045 635.122 75.652C634.068 74.9995 632.411 74.4725 630.153 74.071L619.914 72.2642C614.017 71.2353 609.6 69.2779 606.664 66.392C603.728 63.5062 602.273 59.7921 602.298 55.25C602.273 51.2348 603.327 47.8345 605.46 45.049C607.618 42.2384 610.692 40.1053 614.682 38.6499C618.697 37.1693 623.453 36.429 628.948 36.429C637.305 36.429 643.892 38.1605 648.71 41.6236C653.554 45.0866 656.101 49.8797 656.352 56.0028ZM700.299 37.1818V52.2386H662.205V37.1818H700.299ZM669.583 23.3295H690.361V76.4048C690.361 77.2079 690.499 77.8854 690.775 78.4375C691.051 78.9645 691.478 79.366 692.055 79.642C692.632 79.893 693.373 80.0185 694.276 80.0185C694.903 80.0185 695.631 79.9432 696.459 79.7926C697.313 79.642 697.94 79.5166 698.341 79.4162L701.353 94.0213C700.424 94.2973 699.094 94.6361 697.363 95.0376C695.656 95.4392 693.624 95.7027 691.265 95.8281C686.497 96.0791 682.494 95.5897 679.257 94.3601C676.02 93.1054 673.586 91.1354 671.954 88.4503C670.323 85.7652 669.533 82.4025 669.583 78.3622V23.3295ZM192.969 207V129.909H247.173V146.773H213.898V160.023H243.861V176.886H213.898V207H192.969ZM289.041 181.705V149.182H309.819V207H290.095V196.009H289.492C288.238 199.697 286.042 202.583 282.905 204.666C279.768 206.724 276.042 207.753 271.725 207.753C267.685 207.753 264.147 206.824 261.11 204.967C258.099 203.11 255.753 200.551 254.071 197.288C252.415 194.026 251.574 190.287 251.549 186.071V149.182H272.328V181.705C272.353 184.565 273.08 186.811 274.511 188.442C275.966 190.074 277.999 190.889 280.609 190.889C282.34 190.889 283.834 190.525 285.088 189.798C286.368 189.045 287.347 187.991 288.024 186.636C288.727 185.255 289.066 183.612 289.041 181.705ZM348.092 208.054C341.918 208.054 336.598 206.875 332.131 204.516C327.69 202.132 324.264 198.719 321.855 194.277C319.471 189.81 318.279 184.465 318.279 178.241C318.279 172.269 319.484 167.049 321.893 162.582C324.302 158.116 327.702 154.64 332.094 152.156C336.485 149.671 341.667 148.429 347.64 148.429C352.006 148.429 355.959 149.107 359.497 150.462C363.036 151.817 366.059 153.787 368.569 156.371C371.078 158.931 373.011 162.043 374.366 165.707C375.721 169.371 376.398 173.499 376.398 178.091V182.909H324.754V171.466H357.276C357.251 169.81 356.825 168.354 355.996 167.099C355.193 165.82 354.102 164.828 352.722 164.126C351.366 163.398 349.823 163.034 348.092 163.034C346.41 163.034 344.867 163.398 343.462 164.126C342.056 164.828 340.927 165.807 340.074 167.062C339.246 168.317 338.807 169.785 338.756 171.466V183.812C338.756 185.67 339.145 187.326 339.923 188.781C340.701 190.237 341.818 191.379 343.273 192.207C344.729 193.035 346.486 193.449 348.543 193.449C349.974 193.449 351.279 193.248 352.458 192.847C353.663 192.445 354.692 191.868 355.545 191.115C356.398 190.337 357.025 189.409 357.427 188.33H376.398C375.746 192.345 374.203 195.833 371.768 198.794C369.334 201.73 366.11 204.014 362.094 205.645C358.104 207.251 353.437 208.054 348.092 208.054ZM405.656 129.909V207H384.877V129.909H405.656Z" fill="black"/>
<path fill-rule="evenodd" clip-rule="evenodd" d="M63.0435 28.3095C63.0435 22.0634 68.0837 17 74.3012 17H145V115.619H134.934L125.928 207H17.9682L10.7624 115.608C4.77477 115.348 0 110.389 0 104.31C0 98.0634 5.04027 93 11.2578 93H31.5659L38.7709 184.381H105.532L114.538 93H122.484V39.619H74.3012C68.0837 39.619 63.0435 34.5556 63.0435 28.3095Z" fill="#1B75BA"/>
<path d="M96 120H49.119V106.62H96V120ZM84.9342 95.2717H49V82.8478H84.9342V95.2717ZM71.8456 75.3218L72.7975 100.408C72.8966 103.276 72.143 105.525 70.5367 107.158C68.9502 108.771 66.2928 110.264 62.5646 111.638L53.9975 106.62C54.6519 106.302 55.1378 105.943 55.4551 105.545C55.7922 105.127 56.0103 104.61 56.1095 103.992C56.2285 103.355 56.2781 102.559 56.2582 101.603L55.3063 75.3218C55.1675 71.738 55.8914 68.6519 57.4778 66.0636C59.0842 63.4753 61.3846 61.4843 64.3791 60.0906C67.3935 58.6969 70.9532 58 75.0582 58C78.3502 58 81.2357 58.3783 83.7146 59.1349C86.2133 59.8915 88.3253 61.0164 90.0506 62.5096C91.7759 63.983 93.1046 65.7948 94.0367 67.9451C94.9886 70.0755 95.5637 72.5344 95.762 75.3218L80.2937 76.0385C80.1945 74.605 79.9169 73.5199 79.4608 72.7832C79.0046 72.0466 78.4097 71.5488 77.6759 71.29C76.9422 71.0311 76.1093 70.9017 75.1772 70.9017C74.3641 70.9017 73.7097 71.071 73.2139 71.4094C72.7181 71.7479 72.3612 72.2457 72.143 72.9027C71.9249 73.5597 71.8257 74.3661 71.8456 75.3218Z" fill="#1B75BA"/>
</svg>
